<?xml version="1.0" encoding="utf-8"?>
<!-- Generator: Adobe Illustrator 19.0.0, SVG Export Plug-In . SVG Version: 6.00 Build 0)  -->
<svg version="1.1" id="Layer_1" xmlns="http://www.w3.org/2000/svg" xmlns:xlink="http://www.w3.org/1999/xlink" x="0px" y="0px"
	 viewBox="0 0 640 480" style="enable-background:new 0 0 640 480;" xml:space="preserve">
<style type="text/css">
	.st0{fill:#033F3C;stroke:#231F20;stroke-miterlimit:10;}
	.st1{fill:#79C043;}
	.st2{fill:none;stroke:#FFFFFF;stroke-width:4;stroke-miterlimit:10;}
</style>
<path id="XMLID_30_" class="st0" d="M147.5,200.5l-45.9,169.8c-11.6,23.7,1.1,51.3,28.2,61.4l10.2,3.8c27.1,10.1,58.8-1,70.4-24.6
	l38.2-61l47.1-1.3c5.5,0,10.4,0.2,16.1,0.2c5,0.1,10.6-0.2,16.1-0.2l47.1,1.3l38.2,61c11.6,23.6,43.3,34.7,70.4,24.6l10.2-3.8
	c27.1-10.1,39.8-37.7,28.2-61.4l-44.4-162.8c-6.5-36.3-33.2-64.3-73.7-64.3h-208L147.5,200.5z M253.6,264.6h-28.9v26.7h-16.9v-26.7
	H179v-19.3h28.9v-26.7h16.9v26.7h28.9V264.6z M414.7,203.9c8.5,0,15.3,6.6,15.3,14.7c0,8.1-6.9,14.7-15.3,14.7
	c-8.5,0-15.3-6.6-15.3-14.7C399.4,210.4,406.3,203.9,414.7,203.9z M374.3,248c0-8.1,6.9-14.7,15.3-14.7s15.3,6.6,15.3,14.7
	c0,8.1-6.9,14.7-15.3,14.7S374.3,256.1,374.3,248z M414.7,288.3c-8.5,0-15.3-6.6-15.3-14.7c0-8.1,6.9-14.7,15.3-14.7
	c8.5,0,15.3,6.6,15.3,14.7C430.1,281.7,423.2,288.3,414.7,288.3z M439.5,263.1c-8.5,0-15.3-6.6-15.3-14.7c0-8.1,6.9-14.7,15.3-14.7
	c8.5,0,15.3,6.6,15.3,14.7C454.8,256.5,448,263.1,439.5,263.1z"/>
<g id="XMLID_1_">
	<path id="XMLID_12_" class="st1" d="M282.6,141.3c-13,0.9-45.5,4.2-77.1,16.8c-34.6,13.8-60,33.3-61.2,46.2c-1.3-1.3-2.3-2.8-3-4.5
		l-5.6-13.5l-13-31.8l-79.2,0.1l112.4-95.4l173.9-18.6l-68.8,62l10.8,26.4L282.6,141.3z"/>
	<path id="XMLID_11_" class="st2" d="M282.6,141.3c-13,0.9-45.5,4.2-77.1,16.8c-34.6,13.8-60,33.3-61.2,46.2c-1.3-1.3-2.3-2.8-3-4.5
		l-5.6-13.5l-13-31.8l-79.2,0.1l112.4-95.4l173.9-18.6l-68.8,62l10.8,26.4L282.6,141.3z"/>
</g>
</svg>
